<?xml version="1.0" encoding="utf-8"?>
<!-- Generator: Adobe Illustrator 22.0.0, SVG Export Plug-In . SVG Version: 6.00 Build 0)  -->
<svg version="1.1" id="图层_1" xmlns="http://www.w3.org/2000/svg" xmlns:xlink="http://www.w3.org/1999/xlink" x="0px" y="0px"
	 viewBox="0 0 500 500" style="enable-background:new 0 0 500 500;" xml:space="preserve">
<style type="text/css">
	.st0{fill:#EB8C00;}
	.st1{fill:#FFD800;}
	.st2{fill:#FFE971;}
	.st3{fill:#FFC700;}
	.st4{fill:#FFAF00;}
	.st5{fill:#191326;}
</style>
<path class="st0" d="M486,269.7c0,130.1-104.5,226.1-234.6,226.1s-234.6-96-234.6-226.1S121.3,43.8,251.4,43.8S486,139.8,486,269.7z
	"/>
<path class="st1" d="M486,230.2c0,130.1-104.5,226.1-234.6,226.1s-234.6-96-234.6-226.1S121.3,4.1,251.4,4.1S486,100.3,486,230.2z"
	/>
<path class="st2" d="M415.3,66.3c-19.9-17-45.2-33.8-70.7-42.3L36.7,326.2c11.3,25.5,28.2,48,48,65L415.3,66.3z M186.4,447.8
	c-17-5.7-31-11.3-48-17l316.4-313.6c8.5,14.2,14.2,28.2,19.9,45.2L186.4,447.8z"/>
<path class="st3" d="M443.5,227.4c0,104.5-84.7,178.1-189.2,178.1S65,331.9,65,227.4S149.7,49.5,254.2,49.5S443.5,122.8,443.5,227.4
	z"/>
<path class="st4" d="M423.8,151.2c-56.5-73.5-161.1-96.2-245.9-48C96,151.2,62.2,250.1,96,334.7c-22.7-28.2-33.8-65-33.8-104.5
	c0-104.5,84.7-178.1,189.2-178.1C327.8,49.5,395.4,89,423.8,151.2z"/>
<path id="BTC_alt_1_" class="st5" d="M346.4,236.5c-8.9-6.7-21.5-9.3-21.5-9.3s10.7-6.1,15-12.4c4.3-6.1,6.5-15.8,6.9-20.7
	c0.4-4.9,1.2-25.7-15-37.7c-12.6-9.3-26.9-13-46.2-14.2v-41.9h-25.9v41.5c-5.7,0-12.6,0-19.7,0v-41.5h-25.9v41.5
	c-26.3,0-50.9,0-50.9,0v26.9c0,0,10.9,0,15,0s11.3,0.4,14.4,3.8c3,3.4,3.6,5.3,3.6,12s0,104.5,0,107c0,2.6-0.4,5.7-2.6,7.7
	s-4.3,2.6-9.5,2.6c-5.3,0-15.4,0-15.4,0l-5.3,31c0,0,25.3,0,50.9,0v41.3h25.9v-41.3c7.9,0,14.8,0,19.7,0v41.3h25.9v-41.9
	c6.7-0.4,13-0.8,16.6-1.4c7.3-1,24.1-2.8,39.7-13.8c15.6-10.9,19-28,19.4-45.2C361.6,254.9,355.1,243.2,346.4,236.5z M240.1,171
	c0,0,8.3-0.8,16.4-0.6c8.1,0.2,15.2,0.4,25.9,3.6c10.5,3.2,16.8,11.1,17.2,20.7c0.2,9.5-3.8,15.8-11.1,19.7
	c-7.3,4.1-17.2,6.1-26.7,6.5c-9.5,0.4-21.5,0-21.5,0L240.1,171z M298,294.6c-5.9,3.2-17.8,6.1-29.2,7.1c-11.5,0.8-28.6,0.4-28.6,0.4
	v-55.5c0,0,16.4-0.8,29.2,0s23.5,4.1,28.4,6.5c4.9,2.4,13.4,7.7,13.4,20.5C311,286.3,303.9,291.4,298,294.6z"/>
</svg>
