<?xml version="1.0" encoding="utf-8"?>
<!-- Generator: Adobe Illustrator 22.0.0, SVG Export Plug-In . SVG Version: 6.00 Build 0)  -->
<svg version="1.1" id="图层_1" xmlns="http://www.w3.org/2000/svg" xmlns:xlink="http://www.w3.org/1999/xlink" x="0px" y="0px"
	 viewBox="0 0 500 500" style="enable-background:new 0 0 500 500;" xml:space="preserve">
<style type="text/css">
	.st0{fill:#243C91;}
	.st1{fill:url(#SVGID_1_);}
	.st2{fill:#8F86BC;}
	.st3{fill:url(#SVGID_2_);}
	.st4{fill:#AF2879;}
	.st5{fill:#FFFFFF;}
</style>
<path class="st0" d="M484,269.7C484,398.5,380.3,494,251.4,494S18.8,398.5,18.8,269.7S122.5,45.3,251.4,45.3S484,140.6,484,269.7z"
	/>
<linearGradient id="SVGID_1_" gradientUnits="userSpaceOnUse" x1="137.587" y1="427.3574" x2="365.112" y2="33.2726">
	<stop  offset="0" style="stop-color:#D42079"/>
	<stop  offset="1" style="stop-color:#4E79BC"/>
</linearGradient>
<path class="st1" d="M484,230.2c0,128.9-103.7,224.4-232.6,224.4S18.8,359.3,18.8,230.2S122.5,6.1,251.4,6.1S484,101.4,484,230.2z"
	/>
<path class="st2" d="M414,67.8c-19.7-16.9-44.8-33.6-70.2-42L38.3,325.7c11.3,25.3,27.9,47.6,47.6,64.5L414,67.8z M186.9,446.2
	c-16.9-5.6-30.8-11.3-47.6-16.9l314-311c8.4,14.1,14.1,27.9,19.7,44.8L186.9,446.2z"/>
<linearGradient id="SVGID_2_" gradientUnits="userSpaceOnUse" x1="66.4458" y1="227.5339" x2="441.9832" y2="227.5339">
	<stop  offset="0" style="stop-color:#D42079"/>
	<stop  offset="1" style="stop-color:#4E79BC"/>
</linearGradient>
<path class="st3" d="M442,227.4c0,103.7-84,176.7-187.8,176.7s-187.8-73-187.8-176.7s84-176.5,187.8-176.5S442,123.7,442,227.4z"/>
<path class="st4" d="M422.3,143.6c-56.1-73-159.8-95.3-243.9-47.6c-81.2,47.6-115,145.8-81.2,229.8C74.7,297.8,63.6,261.2,63.6,222
	c0-103.7,84-176.7,187.8-176.7C327,42.7,394.3,81.9,422.3,143.6z"/>
<g>
	<path class="st5" d="M286.8,346.8h-81.6V320H232v-25.2h52.2c30,0,54.4-24.4,54.4-54.4c0-30-24.3-54.4-54.4-54.4H178.5v-26.8H232
		v-25.2h54.8c58.8,0,106.4,47.6,106.4,106.4S345.6,346.8,286.8,346.8z"/>
	<polygon class="st5" points="178.5,212.9 151.7,212.9 151.7,186.1 178.5,186.1 178.5,212.9 	"/>
	<polygon class="st5" points="232,212.9 232,239.7 205.2,239.7 205.2,266.5 178.5,266.5 178.5,212.9 232,212.9 	"/>
	<polygon class="st5" points="232,266.5 232,293.3 205.2,293.3 205.2,266.5 232,266.5 	"/>
	<rect x="178.5" y="293.3" class="st5" width="26.8" height="26.8"/>
	<rect x="151.7" y="266.5" class="st5" width="26.8" height="26.8"/>
	<polygon class="st5" points="151.7,266.5 152,320.4 178.4,320.4 178.4,346.8 152,346.8 152,320.4 	"/>
	<rect x="151.7" y="132.5" class="st5" width="53.5" height="26.8"/>
	<circle class="st5" cx="300.9" cy="240.1" r="12.3"/>
</g>
</svg>
