<?xml version="1.0" encoding="utf-8"?>
<!-- Generator: Adobe Illustrator 22.0.0, SVG Export Plug-In . SVG Version: 6.00 Build 0)  -->
<svg version="1.1" id="图层_1" xmlns="http://www.w3.org/2000/svg" xmlns:xlink="http://www.w3.org/1999/xlink" x="0px" y="0px"
	 viewBox="0 0 500 500" style="enable-background:new 0 0 500 500;" xml:space="preserve">
<style type="text/css">
	.st0{fill:#C4C4C4;}
	.st1{fill:#F5F3F3;}
	.st2{fill:#EDF6F9;}
	.st3{fill:#E5E5E5;}
	.st4{fill:#D8D8D8;}
	.st5{fill:#2F3030;}
	.st6{fill:#08060B;}
	.st7{fill:#828384;}
	.st8{fill:#343535;}
</style>
<path class="st0" d="M486.2,269.7c0,130.2-104.6,226.3-234.8,226.3S16.6,399.9,16.6,269.7S121.2,43.6,251.4,43.6
	S486.2,139.7,486.2,269.7z"/>
<path class="st1" d="M486.2,230.2c0,130.2-104.6,226.3-234.8,226.3S16.6,360.4,16.6,230.2S121.2,3.9,251.4,3.9
	S486.2,100.2,486.2,230.2z"/>
<path class="st2" d="M415.4,66.1c-19.9-17-45.2-33.9-70.8-42.4L36.5,326.3c11.4,25.5,28.2,48.1,48.1,65.1L415.4,66.1z M186.3,447.9
	c-17-5.7-31-11.4-48.1-17L455,117c8.5,14.2,14.2,28.2,19.9,45.2L186.3,447.9z"/>
<path class="st3" d="M443.6,227.3c0,104.6-84.8,178.2-189.4,178.2S64.9,332,64.9,227.3s84.8-178,189.4-178S443.6,122.7,443.6,227.3z
	"/>
<path class="st4" d="M423.9,149.1C367.4,75.5,262.8,52.8,177.8,101C95.9,149.1,64,246,97.9,330.8C75.2,302.6,62,267.7,62,228.2
	C62,123.6,146.8,50,251.4,50C327.8,47.3,395.6,86.8,423.9,149.1z"/>
<g>
	<path class="st5" d="M254.4,316.5v74.9L346.5,262L254.4,316.5z"/>
	<path class="st6" d="M254.4,201v96.4l92.2-54.5L254.4,201z"/>
	<path class="st5" d="M254.4,90v111l92.2,41.9L254.4,90z"/>
	<path class="st7" d="M254.4,316.5v74.9L162.2,262L254.4,316.5z"/>
	<path class="st8" d="M254.4,201v96.4l-92.2-54.5L254.4,201z"/>
	<path class="st7" d="M254.4,90v111l-92.2,41.9L254.4,90z"/>
</g>
</svg>
