<?xml version="1.0" encoding="utf-8"?>
<!-- Generator: Adobe Illustrator 22.0.0, SVG Export Plug-In . SVG Version: 6.00 Build 0)  -->
<svg version="1.1" id="图层_1" xmlns="http://www.w3.org/2000/svg" xmlns:xlink="http://www.w3.org/1999/xlink" x="0px" y="0px"
	 viewBox="0 0 500 500" style="enable-background:new 0 0 500 500;" xml:space="preserve">
<style type="text/css">
	.st0{fill:#1A7255;}
	.st1{fill:#1FAA81;}
	.st2{fill:#2CC693;}
	.st3{fill:#189E6E;}
	.st4{fill:#1A8961;}
	.st5{fill:#FFFFFF;}
</style>
<path class="st0" d="M484.3,269.6c0,129.1-103.8,224.4-232.9,224.4S18.5,398.7,18.5,269.6S122.3,45.3,251.4,45.3
	S484.3,140.6,484.3,269.6z"/>
<path class="st1" d="M484.3,230.3c0,129.1-103.8,224.4-232.9,224.4S18.5,359.5,18.5,230.3S122.3,5.9,251.4,5.9
	S484.3,101.4,484.3,230.3z"/>
<path class="st2" d="M414.1,67.6c-19.7-16.9-44.8-33.6-70.2-42L38.2,325.7c11.3,25.3,28,47.7,47.7,64.6L414.1,67.6z M186.8,446.3
	c-16.9-5.6-30.8-11.3-47.7-16.9l314.1-311.3c8.4,14.1,14.1,28,19.7,44.8L186.8,446.3z"/>
<path class="st3" d="M442.1,227.5c0,103.8-84.1,176.8-187.8,176.8s-187.8-73-187.8-176.8S150.4,50.9,254.2,50.9
	S442.1,123.8,442.1,227.5z"/>
<path class="st4" d="M424.6,149.9c-56.1-73-159.9-95.5-244.2-47.7C99.2,149.9,65.6,248,99.2,332.1c-22.5-28-33.6-64.6-33.6-103.8
	c0-103.8,84.1-176.8,187.8-176.8C329.2,48.9,396.4,88.2,424.6,149.9z"/>
<g>
	<path class="st5" d="M277.1,209.2c-7.8-0.4-15.9-0.6-24.1-0.6c-7.6,0-15.3,0.2-22.5,0.6c-52.3,2.4-91.5,13.1-91.5,25.9
		c0,14.7,51.1,26.5,114,26.5s114-11.9,114-26.5C366.8,222.3,328.4,211.6,277.1,209.2z M253.2,254.9c-58.3,0-105.4-8.8-105.4-19.9
		c0-9.7,36.4-17.7,84.7-19.5c6.6-0.2,13.7-0.4,20.9-0.4c7.6,0,15.1,0.2,22.3,0.4c47.5,2,83.1,9.9,83.1,19.3
		C358.6,246,311.3,254.9,253.2,254.9z"/>
	<rect x="231.1" y="201.4" class="st5" width="46.1" height="9.5"/>
	<g>
		<rect x="231.1" y="254.5" class="st5" width="46.1" height="113.4"/>
		<polygon class="st5" points="138.8,137 138.8,183.3 231.1,183.3 231.1,248.4 277.3,248.4 277.3,183.3 369.7,183.3 369.7,137 		"/>
	</g>
</g>
</svg>
